<?xml version="1.0" encoding="UTF-8"?>
<svg width="9.078cm" height="6.1544cm" version="1.1" viewBox="0 0 9.078e7 61544200" xmlns="http://www.w3.org/2000/svg" xmlns:cc="http://creativecommons.org/ns#" xmlns:dc="http://purl.org/dc/elements/1.1/" xmlns:rdf="http://www.w3.org/1999/02/22-rdf-syntax-ns#">
 <title>SVG Picture created as lc-b3-mpa-brd.svg date 2022/09/02 13:51:07</title>
 <desc>Picture generated by PCBNEW</desc>
 <g stroke-linecap="round" stroke-linejoin="round">
  <g fill="#4D7FC4" fill-rule="evenodd" stroke="#4D7FC4">
   <path d="m417501 4.306e7h5e6v2.8e6h-5e6z"/>
   <path d="m417501 3.416e7h5e6v2.8e6h-5e6z"/>
   <path d="m90366899 4.586e7h-5e6v-2.8e6h5e6z"/>
   <path d="m90366899 3.696e7h-5e6v-2.8e6h5e6z"/>
  </g>
  <g fill="#ECECEC" stroke="#ECECEC">
   <circle cx="78635781" cy="20592800" r="4e5"/>
   <circle cx="78598700" cy="35578800" r="4e5"/>
   <circle cx="40244700" cy="20084800" r="4e5"/>
   <circle cx="50658700" cy="23894800" r="4e5"/>
   <circle cx="87761904" cy="50564800" r="4e5"/>
   <circle cx="45324700" cy="53866800" r="2.9e6"/>
   <circle cx="40244700" cy="23894800" r="4e5"/>
   <circle cx="40244700" cy="34054800" r="4e5"/>
   <circle cx="64901904" cy="57168800" r="4e5"/>
   <circle cx="70470700" cy="5.374e7" r="4e5"/>
   <circle cx="64901904" cy="50564800" r="4e5"/>
   <circle cx="2906700" cy="57168800" r="4e5"/>
   <circle cx="8.192e7" cy="53866800" r="2.9e6"/>
   <circle cx="45324700" cy="40912800" r="4e5"/>
   <circle cx="50658700" cy="34054800" r="4e5"/>
   <circle cx="50658700" cy="50564800" r="4e5"/>
   <circle cx="40244700" cy="29228800" r="4e5"/>
   <circle cx="42530700" cy="37610800" r="4e5"/>
   <circle cx="50658700" cy="59835800" r="4e5"/>
   <circle cx="48118700" cy="49548800" r="4e5"/>
   <circle cx="78635781" cy="27196800" r="4e5"/>
   <circle cx="50658700" cy="20084800" r="4e5"/>
   <circle cx="81937781" cy="23894800" r="2.9e6"/>
   <circle cx="8.778e7" cy="20592800" r="4e5"/>
   <circle cx="8748700" cy="23894800" r="2.9e6"/>
   <circle cx="12050700" cy="35578800" r="4e5"/>
   <circle cx="14590700" cy="57168800" r="4e5"/>
   <circle cx="20178700" cy="5.374e7" r="4e5"/>
   <circle cx="83932700" cy="35578800" r="4e5"/>
   <circle cx="45324700" cy="23894800" r="2.9e6"/>
   <circle cx="42530700" cy="49548800" r="4e5"/>
   <circle cx="6843700" cy="35578800" r="4e5"/>
   <circle cx="48118700" cy="37610800" r="4e5"/>
   <circle cx="2906700" cy="50564800" r="4e5"/>
   <circle cx="2906700" cy="27196800" r="4e5"/>
   <circle cx="50658700" cy="29228800" r="4e5"/>
   <circle cx="76077904" cy="50564800" r="4e5"/>
   <circle cx="45324700" cy="29228800" r="4e5"/>
   <circle cx="14590700" cy="50564800" r="4e5"/>
   <circle cx="2906700" cy="20592800" r="4e5"/>
   <circle cx="87761904" cy="57168800" r="4e5"/>
   <circle cx="40244700" cy="59835800" r="4e5"/>
   <circle cx="50658700" cy="37610800" r="4e5"/>
   <circle cx="2906700" cy="46754800" r="4e5"/>
   <circle cx="25766700" cy="50564800" r="4e5"/>
   <circle cx="45324700" cy="46754800" r="4e5"/>
   <circle cx="76077904" cy="57168800" r="4e5"/>
   <circle cx="25766700" cy="57168800" r="4e5"/>
   <circle cx="45324700" cy="34054800" r="4e5"/>
   <circle cx="45324700" cy="43706800" r="4e5"/>
   <circle cx="8748700" cy="53866800" r="2.9e6"/>
   <circle cx="12050700" cy="20592800" r="4e5"/>
   <circle cx="40244700" cy="50564800" r="4e5"/>
   <circle cx="40244700" cy="37610800" r="4e5"/>
   <circle cx="12050700" cy="27196800" r="4e5"/>
   <circle cx="87742700" cy="46754800" r="4e5"/>
   <circle cx="8.778e7" cy="27196800" r="4e5"/>
  </g>
  <g fill="#4D7FC4" stroke="#4D7FC4" stroke-width="21200">
   <g fill="#4D7FC4" stroke="#4D7FC4" stroke-linecap="round" stroke-linejoin="round" stroke-width="1">
    <path d="m89801021 19038002 46493 53656 11386 52342v41732000l-20002 68121-53656 46493-52342 11386h-88732000l-68121-20002-46493-53656-11386-52342v-41732000l20002-68121 53656-46493 52342-11386h88732000z" fill="#4D7FC4" fill-rule="evenodd" stroke="#4D7FC4" stroke-linecap="round" stroke-linejoin="round" stroke-width="1"/>
   </g>
  </g>
 </g>
 <g stroke-linecap="round" stroke-linejoin="round">
  <g fill="#fff" stroke="#fff">
   <circle cx="78635781" cy="20592800" r="2e5"/>
   <circle cx="78598700" cy="35578800" r="2e5"/>
   <circle cx="40244700" cy="20084800" r="2e5"/>
   <circle cx="50658700" cy="23894800" r="2e5"/>
   <circle cx="87761904" cy="50564800" r="2e5"/>
   <circle cx="45324700" cy="53866800" r="1.6e6"/>
   <circle cx="40244700" cy="23894800" r="2e5"/>
   <circle cx="40244700" cy="34054800" r="2e5"/>
   <circle cx="64901904" cy="57168800" r="2e5"/>
   <circle cx="70470700" cy="5.374e7" r="2e5"/>
   <circle cx="64901904" cy="50564800" r="2e5"/>
   <circle cx="2906700" cy="57168800" r="2e5"/>
   <circle cx="8.192e7" cy="53866800" r="1.6e6"/>
   <circle cx="45324700" cy="40912800" r="2e5"/>
   <circle cx="50658700" cy="34054800" r="2e5"/>
   <circle cx="50658700" cy="50564800" r="2e5"/>
   <circle cx="40244700" cy="29228800" r="2e5"/>
   <circle cx="42530700" cy="37610800" r="2e5"/>
   <circle cx="50658700" cy="59835800" r="2e5"/>
   <circle cx="48118700" cy="49548800" r="2e5"/>
   <circle cx="78635781" cy="27196800" r="2e5"/>
   <circle cx="50658700" cy="20084800" r="2e5"/>
   <circle cx="81937781" cy="23894800" r="1.6e6"/>
   <circle cx="8.778e7" cy="20592800" r="2e5"/>
   <circle cx="8748700" cy="23894800" r="1.6e6"/>
   <circle cx="12050700" cy="35578800" r="2e5"/>
   <circle cx="14590700" cy="57168800" r="2e5"/>
   <circle cx="20178700" cy="5.374e7" r="2e5"/>
   <circle cx="83932700" cy="35578800" r="2e5"/>
   <circle cx="45324700" cy="23894800" r="1.6e6"/>
   <circle cx="42530700" cy="49548800" r="2e5"/>
   <circle cx="6843700" cy="35578800" r="2e5"/>
   <circle cx="48118700" cy="37610800" r="2e5"/>
   <circle cx="2906700" cy="50564800" r="2e5"/>
   <circle cx="2906700" cy="27196800" r="2e5"/>
   <circle cx="50658700" cy="29228800" r="2e5"/>
   <circle cx="76077904" cy="50564800" r="2e5"/>
   <circle cx="45324700" cy="29228800" r="2e5"/>
   <circle cx="14590700" cy="50564800" r="2e5"/>
   <circle cx="2906700" cy="20592800" r="2e5"/>
   <circle cx="87761904" cy="57168800" r="2e5"/>
   <circle cx="40244700" cy="59835800" r="2e5"/>
   <circle cx="50658700" cy="37610800" r="2e5"/>
   <circle cx="2906700" cy="46754800" r="2e5"/>
   <circle cx="25766700" cy="50564800" r="2e5"/>
   <circle cx="45324700" cy="46754800" r="2e5"/>
   <circle cx="76077904" cy="57168800" r="2e5"/>
   <circle cx="25766700" cy="57168800" r="2e5"/>
   <circle cx="45324700" cy="34054800" r="2e5"/>
   <circle cx="45324700" cy="43706800" r="2e5"/>
   <circle cx="8748700" cy="53866800" r="1.6e6"/>
   <circle cx="12050700" cy="20592800" r="2e5"/>
   <circle cx="40244700" cy="50564800" r="2e5"/>
   <circle cx="40244700" cy="37610800" r="2e5"/>
   <circle cx="12050700" cy="27196800" r="2e5"/>
   <circle cx="87742700" cy="46754800" r="2e5"/>
   <circle cx="8.778e7" cy="27196800" r="2e5"/>
  </g>
  <g fill="#ECECEC" stroke="#ECECEC">
   <circle cx="78635781" cy="20592800" r="4e5"/>
   <circle cx="78598700" cy="35578800" r="4e5"/>
   <circle cx="40244700" cy="20084800" r="4e5"/>
   <circle cx="50658700" cy="23894800" r="4e5"/>
   <circle cx="87761904" cy="50564800" r="4e5"/>
   <circle cx="45324700" cy="53866800" r="2.9e6"/>
   <circle cx="40244700" cy="23894800" r="4e5"/>
   <circle cx="40244700" cy="34054800" r="4e5"/>
   <circle cx="64901904" cy="57168800" r="4e5"/>
   <circle cx="70470700" cy="5.374e7" r="4e5"/>
   <circle cx="64901904" cy="50564800" r="4e5"/>
   <circle cx="2906700" cy="57168800" r="4e5"/>
   <circle cx="8.192e7" cy="53866800" r="2.9e6"/>
   <circle cx="45324700" cy="40912800" r="4e5"/>
   <circle cx="50658700" cy="34054800" r="4e5"/>
   <circle cx="50658700" cy="50564800" r="4e5"/>
   <circle cx="40244700" cy="29228800" r="4e5"/>
   <circle cx="42530700" cy="37610800" r="4e5"/>
   <circle cx="50658700" cy="59835800" r="4e5"/>
   <circle cx="48118700" cy="49548800" r="4e5"/>
   <circle cx="78635781" cy="27196800" r="4e5"/>
   <circle cx="50658700" cy="20084800" r="4e5"/>
   <circle cx="81937781" cy="23894800" r="2.9e6"/>
   <circle cx="8.778e7" cy="20592800" r="4e5"/>
   <circle cx="8748700" cy="23894800" r="2.9e6"/>
   <circle cx="12050700" cy="35578800" r="4e5"/>
   <circle cx="14590700" cy="57168800" r="4e5"/>
   <circle cx="20178700" cy="5.374e7" r="4e5"/>
   <circle cx="83932700" cy="35578800" r="4e5"/>
   <circle cx="45324700" cy="23894800" r="2.9e6"/>
   <circle cx="42530700" cy="49548800" r="4e5"/>
   <circle cx="6843700" cy="35578800" r="4e5"/>
   <circle cx="48118700" cy="37610800" r="4e5"/>
   <circle cx="2906700" cy="50564800" r="4e5"/>
   <circle cx="2906700" cy="27196800" r="4e5"/>
   <circle cx="50658700" cy="29228800" r="4e5"/>
   <circle cx="76077904" cy="50564800" r="4e5"/>
   <circle cx="45324700" cy="29228800" r="4e5"/>
   <circle cx="14590700" cy="50564800" r="4e5"/>
   <circle cx="2906700" cy="20592800" r="4e5"/>
   <circle cx="87761904" cy="57168800" r="4e5"/>
   <circle cx="40244700" cy="59835800" r="4e5"/>
   <circle cx="50658700" cy="37610800" r="4e5"/>
   <circle cx="2906700" cy="46754800" r="4e5"/>
   <circle cx="25766700" cy="50564800" r="4e5"/>
   <circle cx="45324700" cy="46754800" r="4e5"/>
   <circle cx="76077904" cy="57168800" r="4e5"/>
   <circle cx="25766700" cy="57168800" r="4e5"/>
   <circle cx="45324700" cy="34054800" r="4e5"/>
   <circle cx="45324700" cy="43706800" r="4e5"/>
   <circle cx="8748700" cy="53866800" r="2.9e6"/>
   <circle cx="12050700" cy="20592800" r="4e5"/>
   <circle cx="40244700" cy="50564800" r="4e5"/>
   <circle cx="40244700" cy="37610800" r="4e5"/>
   <circle cx="12050700" cy="27196800" r="4e5"/>
   <circle cx="87742700" cy="46754800" r="4e5"/>
   <circle cx="8.778e7" cy="27196800" r="4e5"/>
  </g>
  <g fill="#CE7D2C" stroke="#CE7D2C" stroke-width="21200">
   <g fill="#CE7D2C" stroke="#CE7D2C" stroke-linecap="round" stroke-linejoin="round" stroke-width="1">
    <path d="m89801021 19038002 46493 53656 11386 52342v41732000l-20002 68121-53656 46493-52342 11386h-88732000l-68121-20002-46493-53656-11386-52342v-41732000l20002-68121 53656-46493 52342-11386h88732000z" fill="#CE7D2C" fill-rule="evenodd" stroke="#CE7D2C" stroke-linecap="round" stroke-linejoin="round" stroke-width="1"/>
   </g>
  </g>
  <g fill="#fff" stroke="#fff">
   <circle cx="78635781" cy="20592800" r="2e5"/>
   <circle cx="78598700" cy="35578800" r="2e5"/>
   <circle cx="40244700" cy="20084800" r="2e5"/>
   <circle cx="50658700" cy="23894800" r="2e5"/>
   <circle cx="87761904" cy="50564800" r="2e5"/>
   <circle cx="45324700" cy="53866800" r="1.6e6"/>
   <circle cx="40244700" cy="23894800" r="2e5"/>
   <circle cx="40244700" cy="34054800" r="2e5"/>
   <circle cx="64901904" cy="57168800" r="2e5"/>
   <circle cx="70470700" cy="5.374e7" r="2e5"/>
   <circle cx="64901904" cy="50564800" r="2e5"/>
   <circle cx="2906700" cy="57168800" r="2e5"/>
   <circle cx="8.192e7" cy="53866800" r="1.6e6"/>
   <circle cx="45324700" cy="40912800" r="2e5"/>
   <circle cx="50658700" cy="34054800" r="2e5"/>
   <circle cx="50658700" cy="50564800" r="2e5"/>
   <circle cx="40244700" cy="29228800" r="2e5"/>
   <circle cx="42530700" cy="37610800" r="2e5"/>
   <circle cx="50658700" cy="59835800" r="2e5"/>
   <circle cx="48118700" cy="49548800" r="2e5"/>
   <circle cx="78635781" cy="27196800" r="2e5"/>
   <circle cx="50658700" cy="20084800" r="2e5"/>
   <circle cx="81937781" cy="23894800" r="1.6e6"/>
   <circle cx="8.778e7" cy="20592800" r="2e5"/>
   <circle cx="8748700" cy="23894800" r="1.6e6"/>
   <circle cx="12050700" cy="35578800" r="2e5"/>
   <circle cx="14590700" cy="57168800" r="2e5"/>
   <circle cx="20178700" cy="5.374e7" r="2e5"/>
   <circle cx="83932700" cy="35578800" r="2e5"/>
   <circle cx="45324700" cy="23894800" r="1.6e6"/>
   <circle cx="42530700" cy="49548800" r="2e5"/>
   <circle cx="6843700" cy="35578800" r="2e5"/>
   <circle cx="48118700" cy="37610800" r="2e5"/>
   <circle cx="2906700" cy="50564800" r="2e5"/>
   <circle cx="2906700" cy="27196800" r="2e5"/>
   <circle cx="50658700" cy="29228800" r="2e5"/>
   <circle cx="76077904" cy="50564800" r="2e5"/>
   <circle cx="45324700" cy="29228800" r="2e5"/>
   <circle cx="14590700" cy="50564800" r="2e5"/>
   <circle cx="2906700" cy="20592800" r="2e5"/>
   <circle cx="87761904" cy="57168800" r="2e5"/>
   <circle cx="40244700" cy="59835800" r="2e5"/>
   <circle cx="50658700" cy="37610800" r="2e5"/>
   <circle cx="2906700" cy="46754800" r="2e5"/>
   <circle cx="25766700" cy="50564800" r="2e5"/>
   <circle cx="45324700" cy="46754800" r="2e5"/>
   <circle cx="76077904" cy="57168800" r="2e5"/>
   <circle cx="25766700" cy="57168800" r="2e5"/>
   <circle cx="45324700" cy="34054800" r="2e5"/>
   <circle cx="45324700" cy="43706800" r="2e5"/>
   <circle cx="8748700" cy="53866800" r="1.6e6"/>
   <circle cx="12050700" cy="20592800" r="2e5"/>
   <circle cx="40244700" cy="50564800" r="2e5"/>
   <circle cx="40244700" cy="37610800" r="2e5"/>
   <circle cx="12050700" cy="27196800" r="2e5"/>
   <circle cx="87742700" cy="46754800" r="2e5"/>
   <circle cx="8.778e7" cy="27196800" r="2e5"/>
  </g>
  <g fill="#ECECEC" stroke="#ECECEC">
   <circle cx="78635781" cy="20592800" r="4e5"/>
   <circle cx="78598700" cy="35578800" r="4e5"/>
   <circle cx="40244700" cy="20084800" r="4e5"/>
   <circle cx="50658700" cy="23894800" r="4e5"/>
   <circle cx="87761904" cy="50564800" r="4e5"/>
   <circle cx="45324700" cy="53866800" r="2.9e6"/>
   <circle cx="40244700" cy="23894800" r="4e5"/>
   <circle cx="40244700" cy="34054800" r="4e5"/>
   <circle cx="64901904" cy="57168800" r="4e5"/>
   <circle cx="70470700" cy="5.374e7" r="4e5"/>
   <circle cx="64901904" cy="50564800" r="4e5"/>
   <circle cx="2906700" cy="57168800" r="4e5"/>
   <circle cx="8.192e7" cy="53866800" r="2.9e6"/>
   <circle cx="45324700" cy="40912800" r="4e5"/>
   <circle cx="50658700" cy="34054800" r="4e5"/>
   <circle cx="50658700" cy="50564800" r="4e5"/>
   <circle cx="40244700" cy="29228800" r="4e5"/>
   <circle cx="42530700" cy="37610800" r="4e5"/>
   <circle cx="50658700" cy="59835800" r="4e5"/>
   <circle cx="48118700" cy="49548800" r="4e5"/>
   <circle cx="78635781" cy="27196800" r="4e5"/>
   <circle cx="50658700" cy="20084800" r="4e5"/>
   <circle cx="81937781" cy="23894800" r="2.9e6"/>
   <circle cx="8.778e7" cy="20592800" r="4e5"/>
   <circle cx="8748700" cy="23894800" r="2.9e6"/>
   <circle cx="12050700" cy="35578800" r="4e5"/>
   <circle cx="14590700" cy="57168800" r="4e5"/>
   <circle cx="20178700" cy="5.374e7" r="4e5"/>
   <circle cx="83932700" cy="35578800" r="4e5"/>
   <circle cx="45324700" cy="23894800" r="2.9e6"/>
   <circle cx="42530700" cy="49548800" r="4e5"/>
   <circle cx="6843700" cy="35578800" r="4e5"/>
   <circle cx="48118700" cy="37610800" r="4e5"/>
   <circle cx="2906700" cy="50564800" r="4e5"/>
   <circle cx="2906700" cy="27196800" r="4e5"/>
   <circle cx="50658700" cy="29228800" r="4e5"/>
   <circle cx="76077904" cy="50564800" r="4e5"/>
   <circle cx="45324700" cy="29228800" r="4e5"/>
   <circle cx="14590700" cy="50564800" r="4e5"/>
   <circle cx="2906700" cy="20592800" r="4e5"/>
   <circle cx="87761904" cy="57168800" r="4e5"/>
   <circle cx="40244700" cy="59835800" r="4e5"/>
   <circle cx="50658700" cy="37610800" r="4e5"/>
   <circle cx="2906700" cy="46754800" r="4e5"/>
   <circle cx="25766700" cy="50564800" r="4e5"/>
   <circle cx="45324700" cy="46754800" r="4e5"/>
   <circle cx="76077904" cy="57168800" r="4e5"/>
   <circle cx="25766700" cy="57168800" r="4e5"/>
   <circle cx="45324700" cy="34054800" r="4e5"/>
   <circle cx="45324700" cy="43706800" r="4e5"/>
   <circle cx="8748700" cy="53866800" r="2.9e6"/>
   <circle cx="12050700" cy="20592800" r="4e5"/>
   <circle cx="40244700" cy="50564800" r="4e5"/>
   <circle cx="40244700" cy="37610800" r="4e5"/>
   <circle cx="12050700" cy="27196800" r="4e5"/>
   <circle cx="87742700" cy="46754800" r="4e5"/>
   <circle cx="8.778e7" cy="27196800" r="4e5"/>
  </g>
  <g fill="#7FC87F" stroke="#7FC87F" stroke-width="21200">
   <g fill="#7FC87F" stroke="#7FC87F" stroke-linecap="round" stroke-linejoin="round" stroke-width="1">
    <path d="m89801021 19038002 46493 53656 11386 52342v41732000l-20002 68121-53656 46493-52342 11386h-88732000l-68121-20002-46493-53656-11386-52342v-41732000l20002-68121 53656-46493 52342-11386h88732000z" fill="#7FC87F" fill-rule="evenodd" stroke="#7FC87F" stroke-linecap="round" stroke-linejoin="round" stroke-width="1"/>
   </g>
  </g>
  <g fill="#fff" stroke="#fff">
   <circle cx="78635781" cy="20592800" r="2e5"/>
   <circle cx="78598700" cy="35578800" r="2e5"/>
   <circle cx="40244700" cy="20084800" r="2e5"/>
   <circle cx="50658700" cy="23894800" r="2e5"/>
   <circle cx="87761904" cy="50564800" r="2e5"/>
   <circle cx="45324700" cy="53866800" r="1.6e6"/>
   <circle cx="40244700" cy="23894800" r="2e5"/>
   <circle cx="40244700" cy="34054800" r="2e5"/>
   <circle cx="64901904" cy="57168800" r="2e5"/>
   <circle cx="70470700" cy="5.374e7" r="2e5"/>
   <circle cx="64901904" cy="50564800" r="2e5"/>
   <circle cx="2906700" cy="57168800" r="2e5"/>
   <circle cx="8.192e7" cy="53866800" r="1.6e6"/>
   <circle cx="45324700" cy="40912800" r="2e5"/>
   <circle cx="50658700" cy="34054800" r="2e5"/>
   <circle cx="50658700" cy="50564800" r="2e5"/>
   <circle cx="40244700" cy="29228800" r="2e5"/>
   <circle cx="42530700" cy="37610800" r="2e5"/>
   <circle cx="50658700" cy="59835800" r="2e5"/>
   <circle cx="48118700" cy="49548800" r="2e5"/>
   <circle cx="78635781" cy="27196800" r="2e5"/>
   <circle cx="50658700" cy="20084800" r="2e5"/>
   <circle cx="81937781" cy="23894800" r="1.6e6"/>
   <circle cx="8.778e7" cy="20592800" r="2e5"/>
   <circle cx="8748700" cy="23894800" r="1.6e6"/>
   <circle cx="12050700" cy="35578800" r="2e5"/>
   <circle cx="14590700" cy="57168800" r="2e5"/>
   <circle cx="20178700" cy="5.374e7" r="2e5"/>
   <circle cx="83932700" cy="35578800" r="2e5"/>
   <circle cx="45324700" cy="23894800" r="1.6e6"/>
   <circle cx="42530700" cy="49548800" r="2e5"/>
   <circle cx="6843700" cy="35578800" r="2e5"/>
   <circle cx="48118700" cy="37610800" r="2e5"/>
   <circle cx="2906700" cy="50564800" r="2e5"/>
   <circle cx="2906700" cy="27196800" r="2e5"/>
   <circle cx="50658700" cy="29228800" r="2e5"/>
   <circle cx="76077904" cy="50564800" r="2e5"/>
   <circle cx="45324700" cy="29228800" r="2e5"/>
   <circle cx="14590700" cy="50564800" r="2e5"/>
   <circle cx="2906700" cy="20592800" r="2e5"/>
   <circle cx="87761904" cy="57168800" r="2e5"/>
   <circle cx="40244700" cy="59835800" r="2e5"/>
   <circle cx="50658700" cy="37610800" r="2e5"/>
   <circle cx="2906700" cy="46754800" r="2e5"/>
   <circle cx="25766700" cy="50564800" r="2e5"/>
   <circle cx="45324700" cy="46754800" r="2e5"/>
   <circle cx="76077904" cy="57168800" r="2e5"/>
   <circle cx="25766700" cy="57168800" r="2e5"/>
   <circle cx="45324700" cy="34054800" r="2e5"/>
   <circle cx="45324700" cy="43706800" r="2e5"/>
   <circle cx="8748700" cy="53866800" r="1.6e6"/>
   <circle cx="12050700" cy="20592800" r="2e5"/>
   <circle cx="40244700" cy="50564800" r="2e5"/>
   <circle cx="40244700" cy="37610800" r="2e5"/>
   <circle cx="12050700" cy="27196800" r="2e5"/>
   <circle cx="87742700" cy="46754800" r="2e5"/>
   <circle cx="8.778e7" cy="27196800" r="2e5"/>
  </g>
  <g stroke-width="21200">
   <g fill="#C83434" fill-rule="evenodd" stroke="#C83434" stroke-width="1">
    <path d="m37848700 55432800-19030 95671-54193 81106-81106 54193-95671 19030h-2.5e6l-95671-19030-81106-54193-54193-81106-19030-95671v-1.1e6l19030-95671 54193-81106 81106-54193 95671-19030h2.5e6l95671 19030 81106 54193 54193 81106 19030 95671z"/>
    <path d="m33448700 55432800-19030 95671-54193 81106-81106 54193-95671 19030h-2.5e6l-95671-19030-81106-54193-54193-81106-19030-95671v-1.1e6l19030-95671 54193-81106 81106-54193 95671-19030h2.5e6l95671 19030 81106 54193 54193 81106 19030 95671z"/>
    <path d="m35971700 50314800 17127-86104 48774-72995 72995-48774 86104-17127h4.5e5l86104 17127 72995 48774 48774 72995 17127 86104v5e5l-17127 86104-48774 72995-72995 48774-86104 17127h-4.5e5l-86104-17127-72995-48774-48774-72995-17127-86104z"/>
    <path d="m37521700 50314800 17127-86104 48774-72995 72995-48774 86104-17127h4.5e5l86104 17127 72995 48774 48774 72995 17127 86104v5e5l-17127 86104-48774 72995-72995 48774-86104 17127h-4.5e5l-86104-17127-72995-48774-48774-72995-17127-86104z"/>
    <path d="m35971700 33804800 17127-86104 48774-72995 72995-48774 86104-17127h4.5e5l86104 17127 72995 48774 48774 72995 17127 86104v5e5l-17127 86104-48774 72995-72995 48774-86104 17127h-4.5e5l-86104-17127-72995-48774-48774-72995-17127-86104z"/>
    <path d="m37521700 33804800 17127-86104 48774-72995 72995-48774 86104-17127h4.5e5l86104 17127 72995 48774 48774 72995 17127 86104v5e5l-17127 86104-48774 72995-72995 48774-86104 17127h-4.5e5l-86104-17127-72995-48774-48774-72995-17127-86104z"/>
    <path d="m35971700 28978800 17127-86104 48774-72995 72995-48774 86104-17127h4.5e5l86104 17127 72995 48774 48774 72995 17127 86104v5e5l-17127 86104-48774 72995-72995 48774-86104 17127h-4.5e5l-86104-17127-72995-48774-48774-72995-17127-86104z"/>
    <path d="m37521700 28978800 17127-86104 48774-72995 72995-48774 86104-17127h4.5e5l86104 17127 72995 48774 48774 72995 17127 86104v5e5l-17127 86104-48774 72995-72995 48774-86104 17127h-4.5e5l-86104-17127-72995-48774-48774-72995-17127-86104z"/>
    <path d="m52800700 54332800 19030-95671 54193-81106 81106-54193 95671-19030h2.5e6l95671 19030 81106 54193 54193 81106 19030 95671v1.1e6l-19030 95671-54193 81106-81106 54193-95671 19030h-2.5e6l-95671-19030-81106-54193-54193-81106-19030-95671z"/>
    <path d="m57200700 54332800 19030-95671 54193-81106 81106-54193 95671-19030h2.5e6l95671 19030 81106 54193 54193 81106 19030 95671v1.1e6l-19030 95671-54193 81106-81106 54193-95671 19030h-2.5e6l-95671-19030-81106-54193-54193-81106-19030-95671z"/>
    <path d="m52227700 50314800 17127-86104 48774-72995 72995-48774 86104-17127h4.5e5l86104 17127 72995 48774 48774 72995 17127 86104v5e5l-17127 86104-48774 72995-72995 48774-86104 17127h-4.5e5l-86104-17127-72995-48774-48774-72995-17127-86104z"/>
    <path d="m53777700 50314800 17127-86104 48774-72995 72995-48774 86104-17127h4.5e5l86104 17127 72995 48774 48774 72995 17127 86104v5e5l-17127 86104-48774 72995-72995 48774-86104 17127h-4.5e5l-86104-17127-72995-48774-48774-72995-17127-86104z"/>
    <path d="m52227700 33804800 17127-86104 48774-72995 72995-48774 86104-17127h4.5e5l86104 17127 72995 48774 48774 72995 17127 86104v5e5l-17127 86104-48774 72995-72995 48774-86104 17127h-4.5e5l-86104-17127-72995-48774-48774-72995-17127-86104z"/>
    <path d="m53777700 33804800 17127-86104 48774-72995 72995-48774 86104-17127h4.5e5l86104 17127 72995 48774 48774 72995 17127 86104v5e5l-17127 86104-48774 72995-72995 48774-86104 17127h-4.5e5l-86104-17127-72995-48774-48774-72995-17127-86104z"/>
    <path d="m52227700 28978800 17127-86104 48774-72995 72995-48774 86104-17127h4.5e5l86104 17127 72995 48774 48774 72995 17127 86104v5e5l-17127 86104-48774 72995-72995 48774-86104 17127h-4.5e5l-86104-17127-72995-48774-48774-72995-17127-86104z"/>
    <path d="m53777700 28978800 17127-86104 48774-72995 72995-48774 86104-17127h4.5e5l86104 17127 72995 48774 48774 72995 17127 86104v5e5l-17127 86104-48774 72995-72995 48774-86104 17127h-4.5e5l-86104-17127-72995-48774-48774-72995-17127-86104z"/>
    <path d="m35634701 39096801h1.6e6v1.6e6h-1.6e6z"/>
    <path d="m35634701 46716801h1.6e6v1.6e6h-1.6e6z"/>
    <path d="m55014699 48316799h-1.6e6v-1.6e6h1.6e6z"/>
    <path d="m55014699 40696799h-1.6e6v-1.6e6h1.6e6z"/>
    <path d="m417501 39705001h1.97e6v6.1e5h-1.97e6z"/>
    <path d="m417501 3.416e7h5e6v2.8e6h-5e6z"/>
    <path d="m417501 4.306e7h5e6v2.8e6h-5e6z"/>
    <path d="m90366899 40314999h-1.97e6v-6.1e5h1.97e6z"/>
    <path d="m90366899 3.696e7h-5e6v-2.8e6h5e6z"/>
    <path d="m90366899 4.586e7h-5e6v-2.8e6h5e6z"/>
    <path d="m42685700 40131800 95671 19030 81106 54193 54193 81106 19030 95671v725000l-19030 95671-54193 81106-81106 54193-95671 19030h-2.85e6l-95671-19030-81106-54193-54193-81106-19030-95671v-725000l19030-95671 54193-81106 81106-54193 95671-19030z"/>
    <path d="m42685700 46056800 95671 19030 81106 54193 54193 81106 19030 95671v725000l-19030 95671-54193 81106-81106 54193-95671 19030h-2.85e6l-95671-19030-81106-54193-54193-81106-19030-95671v-725000l19030-95671 54193-81106 81106-54193 95671-19030z"/>
    <path d="m47963700 47281800-95671-19030-81106-54193-54193-81106-19030-95671v-725000l19030-95671 54193-81106 81106-54193 95671-19030h2.85e6l95671 19030 81106 54193 54193 81106 19030 95671v725000l-19030 95671-54193 81106-81106 54193-95671 19030z"/>
    <path d="m47963700 41356800-95671-19030-81106-54193-54193-81106-19030-95671v-725000l19030-95671 54193-81106 81106-54193 95671-19030h2.85e6l95671 19030 81106 54193 54193 81106 19030 95671v725000l-19030 95671-54193 81106-81106 54193-95671 19030z"/>
    <path d="m33711901 2.496e7v-6.5e6h4.5e5v6.5e6z"/>
    <path d="m36251901 2.496e7v-6.5e6h4.5e5v6.5e6z"/>
    <path d="m54031901 2.496e7v-6.5e6h4.5e5v6.5e6z"/>
    <path d="m56571901 2.496e7v-6.5e6h4.5e5v6.5e6z"/>
   </g>
   <g fill="#ECECEC" stroke="#ECECEC" stroke-width="1">
    <circle cx="78635781" cy="20592800" r="4e5"/>
    <circle cx="78598700" cy="35578800" r="4e5"/>
    <circle cx="40244700" cy="20084800" r="4e5"/>
    <circle cx="50658700" cy="23894800" r="4e5"/>
    <circle cx="87761904" cy="50564800" r="4e5"/>
    <circle cx="45324700" cy="53866800" r="2.9e6"/>
    <circle cx="40244700" cy="23894800" r="4e5"/>
    <circle cx="40244700" cy="34054800" r="4e5"/>
    <circle cx="64901904" cy="57168800" r="4e5"/>
    <circle cx="70470700" cy="5.374e7" r="4e5"/>
    <circle cx="64901904" cy="50564800" r="4e5"/>
    <circle cx="2906700" cy="57168800" r="4e5"/>
    <circle cx="8.192e7" cy="53866800" r="2.9e6"/>
    <circle cx="45324700" cy="40912800" r="4e5"/>
    <circle cx="50658700" cy="34054800" r="4e5"/>
    <circle cx="50658700" cy="50564800" r="4e5"/>
    <circle cx="40244700" cy="29228800" r="4e5"/>
    <circle cx="42530700" cy="37610800" r="4e5"/>
    <circle cx="50658700" cy="59835800" r="4e5"/>
    <circle cx="48118700" cy="49548800" r="4e5"/>
    <circle cx="78635781" cy="27196800" r="4e5"/>
    <circle cx="50658700" cy="20084800" r="4e5"/>
    <circle cx="81937781" cy="23894800" r="2.9e6"/>
    <circle cx="8.778e7" cy="20592800" r="4e5"/>
    <circle cx="8748700" cy="23894800" r="2.9e6"/>
    <circle cx="12050700" cy="35578800" r="4e5"/>
    <circle cx="14590700" cy="57168800" r="4e5"/>
    <circle cx="20178700" cy="5.374e7" r="4e5"/>
    <circle cx="83932700" cy="35578800" r="4e5"/>
    <circle cx="45324700" cy="23894800" r="2.9e6"/>
    <circle cx="42530700" cy="49548800" r="4e5"/>
    <circle cx="6843700" cy="35578800" r="4e5"/>
    <circle cx="48118700" cy="37610800" r="4e5"/>
    <circle cx="2906700" cy="50564800" r="4e5"/>
    <circle cx="2906700" cy="27196800" r="4e5"/>
    <circle cx="50658700" cy="29228800" r="4e5"/>
    <circle cx="76077904" cy="50564800" r="4e5"/>
    <circle cx="45324700" cy="29228800" r="4e5"/>
    <circle cx="14590700" cy="50564800" r="4e5"/>
    <circle cx="2906700" cy="20592800" r="4e5"/>
    <circle cx="87761904" cy="57168800" r="4e5"/>
    <circle cx="40244700" cy="59835800" r="4e5"/>
    <circle cx="50658700" cy="37610800" r="4e5"/>
    <circle cx="2906700" cy="46754800" r="4e5"/>
    <circle cx="25766700" cy="50564800" r="4e5"/>
    <circle cx="45324700" cy="46754800" r="4e5"/>
    <circle cx="76077904" cy="57168800" r="4e5"/>
    <circle cx="25766700" cy="57168800" r="4e5"/>
    <circle cx="45324700" cy="34054800" r="4e5"/>
    <circle cx="45324700" cy="43706800" r="4e5"/>
    <circle cx="8748700" cy="53866800" r="2.9e6"/>
    <circle cx="12050700" cy="20592800" r="4e5"/>
    <circle cx="40244700" cy="50564800" r="4e5"/>
    <circle cx="40244700" cy="37610800" r="4e5"/>
    <circle cx="12050700" cy="27196800" r="4e5"/>
    <circle cx="87742700" cy="46754800" r="4e5"/>
    <circle cx="8.778e7" cy="27196800" r="4e5"/>
   </g>
   <g fill="#C83434" fill-opacity="0" stroke="#C83434">
    <g stroke-width="2.5e5">
     <path d="m54256900 2.171e7 -42200 42200"/>
    </g>
    <g stroke-width="353000">
     <path d="m33936900 2.171e7v3.3e6"/>
     <path d="m18936900 4.001e7h-16538200"/>
     <path d="m18936900 4.001e7a1.5e7 1.5e7 0 0 0 1.5e7 -1.5e7"/>
     <path d="m71754700 40023800h17612200"/>
     <path d="m56754700 21752200v3271600"/>
    </g>
    <g stroke-width="2.5e5">
     <path d="m56796900 2.171e7 -42200 42200"/>
    </g>
    <g stroke-width="353000">
     <path d="m56754700 25023800a1.5e7 1.5e7 0 0 0 1.5e7 1.5e7"/>
    </g>
   </g>
   <g fill-opacity="0" stroke="#C83434" stroke-width="353000">
    <g fill="#C83434" fill-opacity="1" stroke="#C83434" stroke-linecap="round" stroke-linejoin="round" stroke-width="1">
     <path d="m42980821 46012802 46493 53656 11386 52342v2288000l-20002 68121-53656 46493-52342 11386h-5.97e6v2794000h227662l68121 20002 18532 14525 47306 44813 39985 23225 43680 25372 48858 51511 13856 57443v9312309l-20002 68121-53656 46493-52342 11386h-1.78e6l-68121-20002-46493-53656-11386-52342v-14757200l20002-68121 53656-46493 52342-11386h7368000z" fill="#C83434" fill-opacity="1" fill-rule="evenodd" stroke="#C83434" stroke-linecap="round" stroke-linejoin="round" stroke-width="1"/>
    </g>
   </g>
   <g fill="#C83434" stroke="#C83434" stroke-width="1">
    <path d="m15421821 19038002 46493 53656 11386 52342v17832800l-20002 68121-53656 46493-52342 11386h-14352800l-68121-20002-46493-53656-11386-52342v-17832800l20002-68121 53656-46493 52342-11386h14352800z" fill="#C83434" fill-rule="evenodd" stroke="#C83434" stroke-linecap="round" stroke-linejoin="round" stroke-width="1"/>
    <path d="m55172821 46012802 46493 53656 11386 52342v14757200l-20002 68121-53656 46493-52342 11386h-1.78e6l-68121-20002-46493-53656-11386-52342v-9310079l20002-68121 36913-37251 114671-75182 1-1 6124-4015 14403-15204 61369-35698 30103-3649h224414v-2794000h-5.97e6l-68121-20002-46493-53656-11386-52342v-2288000l20002-68121 53656-46493 52342-11386h7368000z" fill="#C83434" fill-rule="evenodd" stroke="#C83434" stroke-linecap="round" stroke-linejoin="round" stroke-width="1"/>
    <path d="m89801021 19038002 46493 53656 11386 52342v17832800l-20002 68121-53656 46493-52342 11386h-1.44e7l-68121-20002-46493-53656-11386-52342v-17832800l20002-68121 53656-46493 52342-11386h1.44e7z" fill="#C83434" fill-rule="evenodd" stroke="#C83434" stroke-linecap="round" stroke-linejoin="round" stroke-width="1"/>
    <path d="m36884821 19088802 46493 53656 11386 52342v19432000h5.97e6l68121 20002 46493 53656 11386 52342v2542000l-20002 68121-53656 46493-52342 11386h-7368000l-68121-20002-46493-53656-11386-52342v-2542000l20002-68121 53656-46493 52342-11386h382000v-19432000l20002-68121 53656-46493 52342-11386h764000z" fill="#C83434" fill-rule="evenodd" stroke="#C83434" stroke-linecap="round" stroke-linejoin="round" stroke-width="1"/>
    <path d="m89801021 42964802 46493 53656 11386 52342v17805200l-20002 68121-53656 46493-52342 11386h-32832996l-68121-20002-46493-53656-11386-52342v-11963200l20002-68121 53656-46493 52342-11386h28068000v-5716000l20002-68121 53656-46493 52342-11386h4638996z" fill="#C83434" fill-rule="evenodd" stroke="#C83434" stroke-linecap="round" stroke-linejoin="round" stroke-width="1"/>
    <path d="m54664821 19038002 46493 53656 11386 52342v19482800h382000l68121 20002 46493 53656 11386 52342v2542000l-20002 68121-53656 46493-52342 11386h-7368000l-68121-20002-46493-53656-11386-52342v-2542000l20002-68121 53656-46493 52342-11386h5.97e6v-19482800l20002-68121 53656-46493 52342-11386h764000z" fill="#C83434" fill-rule="evenodd" stroke="#C83434" stroke-linecap="round" stroke-linejoin="round" stroke-width="1"/>
    <path d="m5642821 42964802 46493 53656 11386 52342v5716000h28068000l68121 20002 46493 53656 11386 52342v11963200l-20002 68121-53656 46493-52342 11386h-32767800l-68121-20002-46493-53656-11386-52342v-17805200l20002-68121 53656-46493 52342-11386h4573800z" fill="#C83434" fill-rule="evenodd" stroke="#C83434" stroke-linecap="round" stroke-linejoin="round" stroke-width="1"/>
    <path d="m5.308e7 19038002 46493 53656 11385 51943 60854 1.923e7 -19786 68184-53508 46662-52705 11553h-5588601v1235774l-20002 68121-14525 18531-91793 96900-3 4-5035 5315-88817 152910-51258 169241-7067 79182v823907l15478 132757 60335 166221 96956 147883 5312 5032 61072 57854 35698 61369 3649 30104v3909669l-20002 68121-14525 18531-91793 96900-3 4-5035 5315-88817 152910-51258 169241-7067 79182v823907l15478 132757 60335 166221 96956 147883 5312 5032 61072 57854 35698 61369 3649 30104v983895h5503693l68121 20002 14391 10773 67176 58209 4929 2251 45304 52285 11386 52341v2218139l-20002 68121-53656 46493-18506 4026 662 2256-17382 5104h-18116v2254889l-20002 68121-53656 46493-37749 10537-52633 6137-25331 2953h-1l-7271 848-6878 2496-2 1-159341 57838-147883 96956-121611 128376-88817 152910-51258 169241-7067 79182v1198908l15478 132757 60335 166221 96956 147883 128376 121611 152910 88817 169241 51258 6440 575h1l34964 3120 66072 25978 41540 57576 7187 41947v4562571l-20002 68121-53656 46493-52342 11386h-15242000l-68121-20002-46493-53656-11386-52342v-4565089l20002-68121 53656-46493 37750-10538 45089-5257 32873-3832h1l7271-848 6878-2496 2-1 159341-57838 147883-96956 121611-128376 88818-152910 51258-169241 7067-79182v-1198907l-15478-132757-60335-166221-96956-147883-128376-121611-152910-88817-169241-51258-6440-575h-1l-34964-3120-66072-25978-41540-57576-7187-41947v-2125372h-13547l-13236-2879 959-4410-43297-12713-46493-53656-11386-52342v-2349828l20002-68121 37877-37877 54812-35225 3-2 7577-4870 5900-6809 6811-5902 2135 2464 46269-29729 35487-5101h5498127v-981776l20002-68121 14525-18532 6574-6939 90256-95277 88818-152910 51258-169241 7067-79182v-823907l-15478-132757-60335-166221-96956-147883-66384-62886-35698-61369-3649-30104v-3909671l20002-68121 14525-18532 6574-6939 90256-95277 88818-152910 51258-169241 7067-79182v-823907l-15478-132757-60335-166221-96956-147883-66384-62886-35698-61369-3649-30104v-1237895h-5589398l-68121-20002-46493-53656-11385-51943-60854-1.923e7 19786-68184 53508-46662 52705-11553h15495999z" fill="#C83434" fill-rule="evenodd" stroke="#C83434" stroke-linecap="round" stroke-linejoin="round" stroke-width="1"/>
   </g>
  </g>
  <g fill="#fff" stroke="#fff">
   <circle cx="78635781" cy="20592800" r="2e5"/>
   <circle cx="78598700" cy="35578800" r="2e5"/>
   <circle cx="40244700" cy="20084800" r="2e5"/>
   <circle cx="50658700" cy="23894800" r="2e5"/>
   <circle cx="87761904" cy="50564800" r="2e5"/>
   <circle cx="45324700" cy="53866800" r="1.6e6"/>
   <circle cx="40244700" cy="23894800" r="2e5"/>
   <circle cx="40244700" cy="34054800" r="2e5"/>
   <circle cx="64901904" cy="57168800" r="2e5"/>
   <circle cx="70470700" cy="5.374e7" r="2e5"/>
   <circle cx="64901904" cy="50564800" r="2e5"/>
   <circle cx="2906700" cy="57168800" r="2e5"/>
   <circle cx="8.192e7" cy="53866800" r="1.6e6"/>
   <circle cx="45324700" cy="40912800" r="2e5"/>
   <circle cx="50658700" cy="34054800" r="2e5"/>
   <circle cx="50658700" cy="50564800" r="2e5"/>
   <circle cx="40244700" cy="29228800" r="2e5"/>
   <circle cx="42530700" cy="37610800" r="2e5"/>
   <circle cx="50658700" cy="59835800" r="2e5"/>
   <circle cx="48118700" cy="49548800" r="2e5"/>
   <circle cx="78635781" cy="27196800" r="2e5"/>
   <circle cx="50658700" cy="20084800" r="2e5"/>
   <circle cx="81937781" cy="23894800" r="1.6e6"/>
   <circle cx="8.778e7" cy="20592800" r="2e5"/>
   <circle cx="8748700" cy="23894800" r="1.6e6"/>
   <circle cx="12050700" cy="35578800" r="2e5"/>
   <circle cx="14590700" cy="57168800" r="2e5"/>
   <circle cx="20178700" cy="5.374e7" r="2e5"/>
   <circle cx="83932700" cy="35578800" r="2e5"/>
   <circle cx="45324700" cy="23894800" r="1.6e6"/>
   <circle cx="42530700" cy="49548800" r="2e5"/>
   <circle cx="6843700" cy="35578800" r="2e5"/>
   <circle cx="48118700" cy="37610800" r="2e5"/>
   <circle cx="2906700" cy="50564800" r="2e5"/>
   <circle cx="2906700" cy="27196800" r="2e5"/>
   <circle cx="50658700" cy="29228800" r="2e5"/>
   <circle cx="76077904" cy="50564800" r="2e5"/>
   <circle cx="45324700" cy="29228800" r="2e5"/>
   <circle cx="14590700" cy="50564800" r="2e5"/>
   <circle cx="2906700" cy="20592800" r="2e5"/>
   <circle cx="87761904" cy="57168800" r="2e5"/>
   <circle cx="40244700" cy="59835800" r="2e5"/>
   <circle cx="50658700" cy="37610800" r="2e5"/>
   <circle cx="2906700" cy="46754800" r="2e5"/>
   <circle cx="25766700" cy="50564800" r="2e5"/>
   <circle cx="45324700" cy="46754800" r="2e5"/>
   <circle cx="76077904" cy="57168800" r="2e5"/>
   <circle cx="25766700" cy="57168800" r="2e5"/>
   <circle cx="45324700" cy="34054800" r="2e5"/>
   <circle cx="45324700" cy="43706800" r="2e5"/>
   <circle cx="8748700" cy="53866800" r="1.6e6"/>
   <circle cx="12050700" cy="20592800" r="2e5"/>
   <circle cx="40244700" cy="50564800" r="2e5"/>
   <circle cx="40244700" cy="37610800" r="2e5"/>
   <circle cx="12050700" cy="27196800" r="2e5"/>
   <circle cx="87742700" cy="46754800" r="2e5"/>
   <circle cx="8.778e7" cy="27196800" r="2e5"/>
  </g>
 </g>
 <g stroke-linecap="round" stroke-linejoin="round">
  <g fill="#F2EDA1" fill-opacity="0" stroke="#F2EDA1" stroke-width="1.5e5">
   <text x="45324700.000000" y="58303800.000000" font-size="1333333" opacity="0" text-anchor="middle" lengthAdjust="spacingAndGlyphs" textLength="3047620.000000">GND</text>
   <g class="stroked-text">
    <desc>GND</desc>
    <path d="m44562795 57303800-95238-47620h-142857l-142858 47620-95238 95238-47619 95238-47619 190476v142857l47619 190476 47619 95238 95238 95238 142858 47619h95238l142857-47619 47619-47619v-333333h-190476"/>
    <path d="m45038985 58256180v-1e6l571429 1e6v-1e6"/>
    <path d="m46086604 58256180v-1e6h238096l142857 47620 95238 95238 47619 95238 47619 190476v142857l-47619 190476-47619 95238-95238 95238-142857 47619h-238096"/>
   </g>
   <text x="35164700.000000" y="60208800.000000" font-size="1333333" opacity="0" text-anchor="end" lengthAdjust="spacingAndGlyphs" textLength="3242619.000000">+5V</text>
   <g class="stroked-text">
    <desc>+5V</desc>
    <path d="m32257676 5.978e7h761904"/>
    <path d="m32638628 60161180v-761904"/>
    <path d="m33971961 59161180h-476190l-47619 476191 47619-47619 95238-47619h238095l95238 47619 47619 47619 47619 95238v238095l-47619 95238-47619 47619-95238 47619h-238095l-95238-47619-47619-47619"/>
    <path d="m34305295 59161180 333333 1e6 333333-1e6"/>
   </g>
   <text x="55230700.000000" y="60208800.000000" font-size="1333333" opacity="0" lengthAdjust="spacingAndGlyphs" textLength="4195000.000000">+26V</text>
   <g class="stroked-text">
    <desc>+26V</desc>
    <path d="m55566295 5.978e7h761905"/>
    <path d="m55947247 60161180v-761904"/>
    <path d="m56756771 59256419 47619-47619 95238-47620h238095l95238 47620 47619 47619 47620 95238v95238l-47620 142857-571428 571428h619048"/>
    <path d="m58185342 59161180h-190476l-95238 47620-47619 47619-95238 142857-47619 190476v380952l47619 95238 47619 47619 95238 47619h190476l95238-47619 47619-47619 47619-95238v-238095l-47619-95238-47619-47619-95238-47619h-190476l-95238 47619-47619 47619-47619 95238"/>
    <path d="m58566295 59161180 333333 1e6 333333-1e6"/>
   </g>
   <text x="29068700.000000" y="55382800.000000" font-size="1333333" opacity="0" text-anchor="middle" lengthAdjust="spacingAndGlyphs" textLength="2147381.000000">C1</text>
   <g class="stroked-text">
    <desc>C1</desc>
    <path d="m28902033 5.524e7 -47619 47619-142857 47619h-95238l-142858-47619-95238-95238-47619-95238-47619-190476v-142857l47619-190476 47619-95238 95238-95238 142858-47620h95238l142857 47620 47619 47619"/>
    <path d="m29854414 55335180h-571429"/>
    <path d="m29568700 55335180v-1e6l-95239 142858-95238 95238-95238 47619"/>
   </g>
   <text x="34656700.000000" y="51064800.000000" font-size="1333333" opacity="0" text-anchor="middle" lengthAdjust="spacingAndGlyphs" textLength="2147381.000000">C2</text>
   <g class="stroked-text">
    <desc>C2</desc>
    <path d="m3.449e7 50921942-47619 47619-142857 47619h-95238l-142858-47619-95238-95238-47619-95238-47619-190476v-142857l47619-190476 47619-95238 95238-95238 142858-47620h95238l142857 47620 47619 47619"/>
    <path d="m34870985 50112419 47619-47619 95238-47620h238096l95238 47620 47619 47619 47619 95238v95238l-47619 142857-571429 571428h619048"/>
   </g>
   <text x="37196700.000000" y="33124800.000000" font-size="1333333" opacity="0" text-anchor="middle" lengthAdjust="spacingAndGlyphs" textLength="2147381.000000">C3</text>
   <g class="stroked-text">
    <desc>C3</desc>
    <path d="m3.703e7 32981942-47619 47619-142857 47619h-95238l-142858-47619-95238-95238-47619-95238-47619-190476v-142857l47619-190476 47619-95238 95238-95238 142858-47620h95238l142857 47620 47619 47619"/>
    <path d="m37363366 32077180h619048l-333334 380953h142858l95238 47619 47619 47619 47619 95238v238095l-47619 95238-47619 47619-95238 47619h-285715l-95238-47619-47619-47619"/>
   </g>
   <text x="37196700.000000" y="28298800.000000" font-size="1333333" opacity="0" text-anchor="middle" lengthAdjust="spacingAndGlyphs" textLength="2147381.000000">C4</text>
   <g class="stroked-text">
    <desc>C4</desc>
    <path d="m3.703e7 28155942-47619 47619-142857 47619h-95238l-142858-47619-95238-95238-47619-95238-47619-190476v-142857l47619-190476 47619-95238 95238-95238 142858-47620h95238l142857 47620 47619 47619"/>
    <path d="m37887176 27584514v666666"/>
    <path d="m37649080 27203561-238095 714286h619048"/>
   </g>
   <text x="61580700.000000" y="55382800.000000" font-size="1333333" opacity="0" text-anchor="middle" lengthAdjust="spacingAndGlyphs" textLength="2147381.000000">C5</text>
   <g class="stroked-text">
    <desc>C5</desc>
    <path d="m61414033 5.524e7 -47619 47619-142857 47619h-95238l-142858-47619-95238-95238-47619-95238-47619-190476v-142857l47619-190476 47619-95238 95238-95238 142858-47620h95238l142857 47620 47619 47619"/>
    <path d="m62318795 54335180h-476191l-47619 476191 47619-47619 95238-47619h238096l95238 47619 47619 47619 47619 95238v238095l-47619 95238-47619 47619-95238 47619h-238096l-95238-47619-47619-47619"/>
   </g>
   <text x="55992700.000000" y="51064800.000000" font-size="1333333" opacity="0" text-anchor="middle" lengthAdjust="spacingAndGlyphs" textLength="2147381.000000">C6</text>
   <g class="stroked-text">
    <desc>C6</desc>
    <path d="m55826033 50921942-47619 47619-142857 47619h-95238l-142858-47619-95238-95238-47619-95238-47619-190476v-142857l47619-190476 47619-95238 95238-95238 142858-47620h95238l142857 47620 47619 47619"/>
    <path d="m56683176 50017180h-190476l-95239 47620-47619 47619-95238 142857-47619 190476v380952l47619 95238 47619 47619 95238 47619h190477l95238-47619 47619-47619 47619-95238v-238095l-47619-95238-47619-47619-95238-47619h-190477l-95238 47619-47619 47619-47619 95238"/>
   </g>
   <text x="53452700.000000" y="33124800.000000" font-size="1333333" opacity="0" text-anchor="middle" lengthAdjust="spacingAndGlyphs" textLength="2147381.000000">C7</text>
   <g class="stroked-text">
    <desc>C7</desc>
    <path d="m53286033 32981942-47619 47619-142857 47619h-95238l-142858-47619-95238-95238-47619-95238-47619-190476v-142857l47619-190476 47619-95238 95238-95238 142858-47620h95238l142857 47620 47619 47619"/>
    <path d="m53619366 32077180h666667l-428572 1e6"/>
   </g>
   <text x="53452700.000000" y="28298800.000000" font-size="1333333" opacity="0" text-anchor="middle" lengthAdjust="spacingAndGlyphs" textLength="2147381.000000">C8</text>
   <g class="stroked-text">
    <desc>C8</desc>
    <path d="m53286033 28155942-47619 47619-142857 47619h-95238l-142858-47619-95238-95238-47619-95238-47619-190476v-142857l47619-190476 47619-95238 95238-95238 142858-47620h95238l142857 47620 47619 47619"/>
    <path d="m53857461 2.768e7 -95238-47619-47619-47619-47619-95238v-47619l47619-95238 47619-47619 95238-47620h190477l95238 47620 47619 47619 47619 95238v47619l-47619 95238-47619 47619-95238 47619h-190477l-95238 47619-47619 47619-47619 95238v190476l47619 95238 47619 47619 95238 47619h190477l95238-47619 47619-47619 47619-95238v-190476l-47619-95238-47619-47619-95238-47619"/>
   </g>
   <g transform="rotate(-90 38654700 43706800)">
    <text x="38654700.000000" y="44206800.000000" font-size="1333333" opacity="0" text-anchor="middle" lengthAdjust="spacingAndGlyphs" textLength="3004524.000000">FB1</text>
   </g>
   <g class="stroked-text">
    <desc>FB1</desc>
    <path d="m38583271 4.454e7v333333"/>
    <path d="m39107080 44873466h-1e6v-476190"/>
    <path d="m38583271 43682990 47619-142857 47619-47619 95238-47619h142857l95238 47619 47619 47619 47619 95238v380952h-1e6v-333333l47620-95238 47619-47619 95238-47619h95238l95238 47619 47619 47619 47619 95238v333333"/>
    <path d="m39107080 42492514v571428"/>
    <path d="m39107080 42778228h-1e6l142858 95238 95238 95238 47619 95238"/>
   </g>
   <g transform="rotate(-90 51994700 43706800)">
    <text x="51994700.000000" y="44206800.000000" font-size="1333333" opacity="0" text-anchor="middle" lengthAdjust="spacingAndGlyphs" textLength="3004524.000000">FB2</text>
   </g>
   <g class="stroked-text">
    <desc>FB2</desc>
    <path d="m51923271 4.454e7v333333"/>
    <path d="m52447080 44873466h-1e6v-476190"/>
    <path d="m51923271 43682990 47619-142857 47619-47619 95238-47619h142857l95238 47619 47619 47619 47619 95238v380952h-1e6v-333333l47620-95238 47619-47619 95238-47619h95238l95238 47619 47619 47619 47619 95238v333333"/>
    <path d="m51542319 43063942-47619-47619-47620-95238v-238095l47620-95238 47619-47619 95238-47619h95238l142857 47619 571428 571428v-619047"/>
   </g>
   <text x="4684700.000000" y="33538800.000000" font-size="1333333" opacity="0" text-anchor="middle" lengthAdjust="spacingAndGlyphs" textLength="1909286.000000">J1</text>
   <g class="stroked-text">
    <desc>J1</desc>
    <path d="m4351366 32491180v714286l-47619 142857-95238 95238-142857 47619h-95238"/>
    <path d="m5351366 33491180h-571428"/>
    <path d="m5065652 33491180v-1e6l-95238 142858-95238 95238-95238 47619"/>
   </g>
   <text x="86218700.000000" y="33538800.000000" font-size="1333333" opacity="0" text-anchor="middle" lengthAdjust="spacingAndGlyphs" textLength="1909286.000000">J2</text>
   <g class="stroked-text">
    <desc>J2</desc>
    <path d="m85885366 32491180v714286l-47619 142857-95238 95238-142857 47619h-95238"/>
    <path d="m86313938 32586419 47619-47619 95238-47620h238095l95238 47620 47619 47619 47619 95238v95238l-47619 142857-571428 571428h619047"/>
   </g>
   <g transform="rotate(-90 43880700 43706800)">
    <text x="43880700.000000" y="44206800.000000" font-size="1333333" opacity="0" text-anchor="middle" lengthAdjust="spacingAndGlyphs" textLength="2147381.000000">R1</text>
   </g>
   <g class="stroked-text">
    <desc>R1</desc>
    <path d="m44333080 43873466-476190 333334"/>
    <path d="m44333080 44444895h-1e6v-380953l47620-95238 47619-47619 95238-47619h142857l95238 47619 47619 47619 47619 95238v380953"/>
    <path d="m44333080 42921085v571429"/>
    <path d="m44333080 43206800h-1e6l142858 95238 95238 95238 47619 95238"/>
   </g>
   <g transform="rotate(-90 46768700 43706800)">
    <text x="46768700.000000" y="44206800.000000" font-size="1333333" opacity="0" text-anchor="middle" lengthAdjust="spacingAndGlyphs" textLength="2147381.000000">R2</text>
   </g>
   <g class="stroked-text">
    <desc>R2</desc>
    <path d="m47221080 43873466-476190 333334"/>
    <path d="m47221080 44444895h-1e6v-380953l47620-95238 47619-47619 95238-47619h142857l95238 47619 47619 47619 47619 95238v380953"/>
    <path d="m46316319 43492514-47619-47619-47620-95238v-238096l47620-95238 47619-47619 95238-47619h95238l142857 47619 571428 571429v-619048"/>
   </g>
   <text x="59336900.000000" y="24750000.000000" font-size="1333333" opacity="0" text-anchor="middle" lengthAdjust="spacingAndGlyphs" textLength="2195000.000000">U1</text>
   <g class="stroked-text">
    <desc>U1</desc>
    <path d="m58574995 23702380v809524l47619 95238 47619 47619 95238 47619h190476l95238-47619 47619-47619 47619-95238v-809524"/>
    <path d="m60146423 24702380h-571428"/>
    <path d="m59860709 24702380v-1e6l-95238 142858-95238 95238-95238 47619"/>
   </g>
  </g>
  <g fill="#F2EDA1" fill-opacity="0" stroke="#F2EDA1" stroke-width="1.2e5">
   <path d="m37773700 56567800h-625000"/>
   <path d="m36908700 56578363v-635563"/>
   <path d="m35844263 57642800h-4455563"/>
   <path d="m37461200 5.688e7v-625000"/>
   <path d="m36908700 56578363-1064437 1064437"/>
   <path d="m31388700 57642800v-1.7e6"/>
   <path d="m36908700 53187237v635563"/>
   <path d="m36908700 53187237-1064437-1064437"/>
   <path d="m35844263 52122800h-4455563"/>
   <path d="m31388700 52122800v1.7e6"/>
   <path d="m37056120 50054800h281160"/>
   <path d="m37056120 51074800h281160"/>
   <path d="m37056120 33544800h281160"/>
   <path d="m37056120 34564800h281160"/>
   <path d="m37056120 29738800h281160"/>
   <path d="m37056120 28718800h281160"/>
   <path d="m53740700 56578363v-635563"/>
   <path d="m54805137 57642800h4455563"/>
   <path d="m54805137 52122800h4455563"/>
   <path d="m59260700 52122800v1.7e6"/>
   <path d="m52875700 53197800h625000"/>
   <path d="m59260700 57642800v-1.7e6"/>
   <path d="m53740700 53187237v635563"/>
   <path d="m53740700 53187237 1064437-1064437"/>
   <path d="m53740700 56578363 1064437 1064437"/>
   <path d="m53188200 52885300v625000"/>
   <path d="m53312120 51074800h281160"/>
   <path d="m53312120 50054800h281160"/>
   <path d="m53312120 34564800h281160"/>
   <path d="m53312120 33544800h281160"/>
   <path d="m53312120 28718800h281160"/>
   <path d="m53312120 29738800h281160"/>
   <path d="m37654700 40936800h-2.44e6"/>
   <path d="m35214700 40936800v5.54e6"/>
   <path d="m35214700 46476800h2.44e6"/>
   <path d="m37654700 46476800v-5.54e6"/>
   <path d="m55434700 40936800h-2.44e6"/>
   <path d="m52994700 46476800h2.44e6"/>
   <path d="m52994700 40936800v5.54e6"/>
   <path d="m55434700 46476800v-5.54e6"/>
   <path d="m39550700 4.153e7v4354128"/>
   <path d="m42970700 4.153e7v4354128"/>
   <path d="m51098700 45883864v-4354128"/>
   <path d="m47678700 45883864v-4354128"/>
  </g>
  <g fill="#fff" stroke="#fff">
   <circle cx="78635781" cy="20592800" r="2e5"/>
   <circle cx="78598700" cy="35578800" r="2e5"/>
   <circle cx="40244700" cy="20084800" r="2e5"/>
   <circle cx="50658700" cy="23894800" r="2e5"/>
   <circle cx="87761904" cy="50564800" r="2e5"/>
   <circle cx="45324700" cy="53866800" r="1.6e6"/>
   <circle cx="40244700" cy="23894800" r="2e5"/>
   <circle cx="40244700" cy="34054800" r="2e5"/>
   <circle cx="64901904" cy="57168800" r="2e5"/>
   <circle cx="70470700" cy="5.374e7" r="2e5"/>
   <circle cx="64901904" cy="50564800" r="2e5"/>
   <circle cx="2906700" cy="57168800" r="2e5"/>
   <circle cx="8.192e7" cy="53866800" r="1.6e6"/>
   <circle cx="45324700" cy="40912800" r="2e5"/>
   <circle cx="50658700" cy="34054800" r="2e5"/>
   <circle cx="50658700" cy="50564800" r="2e5"/>
   <circle cx="40244700" cy="29228800" r="2e5"/>
   <circle cx="42530700" cy="37610800" r="2e5"/>
   <circle cx="50658700" cy="59835800" r="2e5"/>
   <circle cx="48118700" cy="49548800" r="2e5"/>
   <circle cx="78635781" cy="27196800" r="2e5"/>
   <circle cx="50658700" cy="20084800" r="2e5"/>
   <circle cx="81937781" cy="23894800" r="1.6e6"/>
   <circle cx="8.778e7" cy="20592800" r="2e5"/>
   <circle cx="8748700" cy="23894800" r="1.6e6"/>
   <circle cx="12050700" cy="35578800" r="2e5"/>
   <circle cx="14590700" cy="57168800" r="2e5"/>
   <circle cx="20178700" cy="5.374e7" r="2e5"/>
   <circle cx="83932700" cy="35578800" r="2e5"/>
   <circle cx="45324700" cy="23894800" r="1.6e6"/>
   <circle cx="42530700" cy="49548800" r="2e5"/>
   <circle cx="6843700" cy="35578800" r="2e5"/>
   <circle cx="48118700" cy="37610800" r="2e5"/>
   <circle cx="2906700" cy="50564800" r="2e5"/>
   <circle cx="2906700" cy="27196800" r="2e5"/>
   <circle cx="50658700" cy="29228800" r="2e5"/>
   <circle cx="76077904" cy="50564800" r="2e5"/>
   <circle cx="45324700" cy="29228800" r="2e5"/>
   <circle cx="14590700" cy="50564800" r="2e5"/>
   <circle cx="2906700" cy="20592800" r="2e5"/>
   <circle cx="87761904" cy="57168800" r="2e5"/>
   <circle cx="40244700" cy="59835800" r="2e5"/>
   <circle cx="50658700" cy="37610800" r="2e5"/>
   <circle cx="2906700" cy="46754800" r="2e5"/>
   <circle cx="25766700" cy="50564800" r="2e5"/>
   <circle cx="45324700" cy="46754800" r="2e5"/>
   <circle cx="76077904" cy="57168800" r="2e5"/>
   <circle cx="25766700" cy="57168800" r="2e5"/>
   <circle cx="45324700" cy="34054800" r="2e5"/>
   <circle cx="45324700" cy="43706800" r="2e5"/>
   <circle cx="8748700" cy="53866800" r="1.6e6"/>
   <circle cx="12050700" cy="20592800" r="2e5"/>
   <circle cx="40244700" cy="50564800" r="2e5"/>
   <circle cx="40244700" cy="37610800" r="2e5"/>
   <circle cx="12050700" cy="27196800" r="2e5"/>
   <circle cx="87742700" cy="46754800" r="2e5"/>
   <circle cx="8.778e7" cy="27196800" r="2e5"/>
  </g>
 </g>
 <metadata>
  <rdf:RDF>
   <cc:Work rdf:about="">
    <dc:title>SVG Picture created as lc-b3-mpa-brd.svg date 2022/09/02 13:51:07</dc:title>
   </cc:Work>
  </rdf:RDF>
 </metadata>
</svg>
